<?xml version="1.0" standalone="no"?>
<!DOCTYPE svg PUBLIC "-//W3C//DTD SVG 1.1//EN" "http://www.w3.org/Graphics/SVG/1.1/DTD/svg11.dtd" >
<svg xmlns="http://www.w3.org/2000/svg" xmlns:xlink="http://www.w3.org/1999/xlink" version="1.1">
<metadata>
Created by FontForge 20161003 at Wed Apr 18 12:14:47 2018
 By www-data
Copyright (c) 2014 Indian Type Foundry (info@indiantypefoundry.com)
</metadata>
<defs>
<font id="Poppins-Regular" horiz-adv-x="1372" >
  <font-face 
    font-family="Poppins"
    font-weight="400"
    font-stretch="normal"
    units-per-em="2048"
    panose-1="2 0 0 0 0 0 0 0 0 0"
    ascent="1638"
    descent="-410"
    x-height="1124"
    cap-height="1419"
    bbox="-66 -553 2257 2025"
    underline-thickness="102"
    underline-position="-817"
    unicode-range="U+000D-FB02"
  />
<missing-glyph horiz-adv-x="748" 
d="M68 0v1365h544v-1365h-544zM136 68h408v1229h-408v-1229z" />
    <glyph glyph-name="uniFB01" unicode="fi" horiz-adv-x="1169" 
d="M47 973v151h146v95q0 184 98 268t309 84v-152q-123 0 -171 -45.5t-48 -154.5v-95h635v-1124h-187v973h-448v-973h-188v973h-146zM799 1431.5q0 53.5 36.5 90.5t89 37t88.5 -37t36 -90.5t-36 -90t-89.5 -36.5t-89 36.5t-35.5 90z" />
    <glyph glyph-name="uniFB02" unicode="fl" horiz-adv-x="1169" 
d="M47 973v151h146v95q0 184 98 268t309 84v-152q-123 0 -171 -45.5t-48 -154.5v-95h235v-151h-235v-973h-188v973h-146zM829 0v1516h187v-1516h-187z" />
    <glyph glyph-name=".notdef" horiz-adv-x="748" 
d="M68 0v1365h544v-1365h-544zM136 68h408v1229h-408v-1229z" />
    <glyph glyph-name="glyph1" horiz-adv-x="0" 
 />
    <glyph glyph-name="glyph1" horiz-adv-x="0" 
 />
    <glyph glyph-name="uni000D" unicode="&#xd;" horiz-adv-x="614" 
 />
    <glyph glyph-name="space" unicode=" " horiz-adv-x="614" 
 />
    <glyph glyph-name="exclam" unicode="!" horiz-adv-x="839" 
d="M315 120q0 50 35 85t85 35t85 -35t35 -85t-35 -85t-85 -35t-85 35t-35 85zM332 1532h194l-20 -1108h-152z" />
    <glyph glyph-name="quotedbl" unicode="&#x22;" horiz-adv-x="585" 
d="M66 1630h178l-25 -407h-129zM342 1630h178l-24 -407h-129z" />
    <glyph glyph-name="numbersign" unicode="#" horiz-adv-x="1736" 
d="M76 414v159h354l80 373h-317v160h350l88 410h180l-88 -410h428l88 410h180l-88 -410h287v-160h-320l-79 -373h280v-159h-315l-88 -414h-181l89 414h-429l-88 -414h-180l88 414h-319zM610 573h428l80 373h-428z" />
    <glyph glyph-name="dollar" unicode="$" horiz-adv-x="1335" 
d="M123 354h199q6 -84 60 -141t159 -70v502q-211 47 -287 107q-92 74 -115 157q-16 55 -16 125q0 166 112.5 274.5t305.5 123.5v165h114v-165q172 -14 278.5 -107.5t125.5 -249.5h-205q-6 68 -58.5 123t-140.5 74v-492q256 -53 336 -139q88 -94 88 -246.5t-111.5 -271.5
t-312.5 -135v-166h-114v166q-184 14 -301 111.5t-117 254.5zM305 1044.5q0 -102.5 60.5 -152.5t175.5 -83v467q-107 -10 -171.5 -69.5t-64.5 -162zM655 143q113 15 177.5 81.5t64.5 163.5t-62.5 147.5t-179.5 80.5v-473z" />
    <glyph glyph-name="percent" unicode="%" horiz-adv-x="1400" 
d="M94 1137.5q0 138.5 83 220.5t214 82t215 -82t84 -220.5t-84 -221t-214 -82.5t-214 82.5t-84 221zM193 0l829 1419h186l-829 -1419h-186zM250 1136.5q0 -186.5 141 -186.5t141 186.5t-141 186.5t-141 -186.5zM713 281.5q0 138.5 84 221.5t213 83t214 -83t85 -221.5
t-84 -220t-215 -81.5t-214 81.5t-83 220zM868 282.5q0 -186.5 141.5 -186.5t141.5 186.5t-141.5 186.5t-141.5 -186.5z" />
    <glyph glyph-name="ampersand" unicode="&#x26;" horiz-adv-x="1368" 
d="M78 401.5q0 182.5 117.5 299t287.5 116.5q23 0 54 -18l-82 61q-141 184 -141.5 322.5t99 236t268.5 97.5t269.5 -95.5t100.5 -226.5q0 -43 -15 -94h-188q12 37 12 98.5t-50 112.5t-129 51t-129 -51t-50 -135t94 -209l741 -967h-227l-215 287q-37 -133 -146.5 -218
t-269.5 -85t-280.5 117.5t-120.5 300zM250 403.5q0 -112.5 71.5 -190.5t174 -78t176 78t73.5 189.5t-72.5 189.5t-176 78t-175 -77t-71.5 -189.5z" />
    <glyph glyph-name="quotesingle" unicode="'" horiz-adv-x="309" 
d="M66 1630h178l-25 -407h-129z" />
    <glyph glyph-name="parenleft" unicode="(" horiz-adv-x="1148" 
d="M311 825q0 379 147.5 699.5t393.5 500.5h199v-18q-283 -221 -421 -531.5t-138 -651.5t138 -652t421 -530v-19h-199q-246 180 -393.5 501.5t-147.5 700.5z" />
    <glyph glyph-name="parenright" unicode=")" horiz-adv-x="1150" 
d="M100 -358q281 219 420 530t139 652t-139 651.5t-420 531.5v18h199q246 -180 393.5 -500.5t147.5 -699.5t-147.5 -700.5t-393.5 -501.5h-199v19z" />
    <glyph glyph-name="asterisk" unicode="*" horiz-adv-x="1007" 
d="M119 1010l291 110l-291 111l86 149l250 -188l-37 311h168l-41 -311l246 186l81 -147l-292 -111l292 -110l-81 -150l-246 187l41 -310h-168l37 310l-250 -191z" />
    <glyph glyph-name="plus" unicode="+" horiz-adv-x="1517" 
d="M238 668v163h434v441h174v-441h434v-163h-434v-441h-174v441h-434z" />
    <glyph glyph-name="comma" unicode="," horiz-adv-x="380" 
d="M80 -53v190h190q102 -430 -184 -430v90q51 0 74.5 24.5t23.5 78.5v47h-104z" />
    <glyph glyph-name="hyphen" unicode="-" horiz-adv-x="1202" 
d="M193 670v159h817v-159h-817z" />
    <glyph glyph-name="period" unicode="." horiz-adv-x="462" 
d="M113 120q0 50 34.5 85t84 35t84 -35t34.5 -85t-34.5 -85t-84 -35t-84 35t-34.5 85z" />
    <glyph glyph-name="slash" unicode="/" horiz-adv-x="1103" 
d="M168 -348l559 2277h184l-559 -2277h-184z" />
    <glyph glyph-name="zero" unicode="0" horiz-adv-x="1302" 
d="M135 750.5q0 132.5 13.5 238t49 203.5t92 162.5t147.5 103.5t227.5 39t240 -56.5t158.5 -162.5q100 -197 100 -528q0 -426 -151 -605q-125 -143 -363 -143q-436 0 -502 510q-12 106 -12 238.5zM317 749.5q0 -102.5 5.5 -177t26 -155.5t55 -132.5t97 -84t148.5 -32.5
t148.5 32.5t98.5 84t54 133.5q33 131 33 297t-11 256t-43 179t-102.5 135t-167 46t-159 -32.5t-97 -84t-55 -132.5t-26 -155.5t-5.5 -177z" />
    <glyph glyph-name="one" unicode="1" horiz-adv-x="657" 
d="M106 1288v166h351v-1454h-183v1288h-168z" />
    <glyph glyph-name="two" unicode="2" horiz-adv-x="1185" 
d="M115 20v134q49 43 154.5 133t156.5 136t135 125t128 132t91 123q88 131 88 259t-66.5 206t-208.5 78t-218 -87.5t-82 -230.5h-178q8 229 138 353t338 124t334 -117.5t126 -320.5q0 -244 -238 -502q-86 -92 -133 -135q-131 -127 -281 -252h697v-158h-981z" />
    <glyph glyph-name="three" unicode="3" horiz-adv-x="1206" 
d="M104 416h177q10 -117 97 -191.5t231.5 -74.5t221 76.5t76.5 197.5q0 162 -102.5 229.5t-312.5 67.5h-50v156h52q385 4 385 247q0 113 -73 178.5t-204 65.5t-207 -60.5t-92 -160.5h-180q16 178 148 279.5t338 101.5t326 -108.5t120 -276.5q0 -121 -67.5 -212t-174.5 -124
v-10q125 -35 196.5 -135.5t71.5 -268.5t-123.5 -284.5t-342 -116.5t-357.5 110.5t-154 313.5z" />
    <glyph glyph-name="four" unicode="4" horiz-adv-x="1298" 
d="M92 332v131l705 1012h237v-983h199v-160h-199v-332h-180v332h-762zM309 492h551v811z" />
    <glyph glyph-name="five" unicode="5" horiz-adv-x="1298" 
d="M150 395h178q29 -111 118 -174t235 -63t229 98t83 264t-83 255t-246 89q-111 0 -191 -57t-119 -156h-170v846h887v-162h-715v-469q45 68 137.5 113t210 45t215 -44t150.5 -120q100 -147 100 -336q0 -231 -129 -377.5t-361.5 -146.5t-364.5 108.5t-164 286.5z" />
    <glyph glyph-name="six" unicode="6" horiz-adv-x="1318" 
d="M164 817q0 324 127 518.5t395 194.5q197 0 312.5 -105.5t134.5 -261.5h-168q-27 106 -92.5 157.5t-186.5 51.5q-184 0 -272 -135t-95 -459q55 100 164 156.5t242 56.5q205 0 332 -132t127 -356t-125 -363.5t-359 -139.5q-373 0 -477 315q-59 178 -59 502zM346 506
q0 -160 88 -254t246 -94t243 89t85 245.5t-81 247.5t-229.5 91t-250 -82.5t-101.5 -242.5z" />
    <glyph glyph-name="seven" unicode="7" horiz-adv-x="1146" 
d="M82 1333v158h987v-139l-586 -1352h-204l612 1333h-809z" />
    <glyph glyph-name="eight" unicode="8" horiz-adv-x="1300" 
d="M129 414q0 141 71.5 242.5t190.5 140.5q-223 106 -223 342q0 174 126 287.5t356.5 113.5t355 -114.5t124.5 -288.5q0 -119 -61 -208t-160 -132q117 -39 188.5 -140.5t71.5 -242.5q0 -207 -143 -331t-376.5 -124t-377 124t-143.5 331zM305 423q0 -142 93.5 -224t251 -82
t249.5 83t92 224t-94 216t-246.5 75t-249 -75t-96.5 -217zM344 1126.5q0 -118.5 85 -191.5t220 -73t220 73t85 191.5t-80.5 187t-223 68.5t-224.5 -68.5t-82 -187z" />
    <glyph glyph-name="nine" unicode="9" horiz-adv-x="1300" 
d="M170 1038.5q0 223.5 129 357.5t358 134q268 0 385 -183.5t117 -575.5t-107.5 -580.5t-377.5 -188.5q-207 0 -324 108.5t-139 272.5h170q47 -223 303 -223q164 0 239.5 126t75.5 441q-53 -82 -148 -125t-206 -43q-203 0 -339 128t-136 351.5zM346 1045.5
q0 -146.5 83 -236.5t235.5 -90t230.5 86t78 237.5t-83 240.5t-228.5 89t-230.5 -90t-85 -236.5z" />
    <glyph glyph-name="colon" unicode=":" horiz-adv-x="618" 
d="M174 120q0 50 35 85t85 35t85 -35t35 -85t-35 -85t-85 -35t-85 35t-35 85zM174 993q0 49 35 84t85 35t85 -35t35 -84t-35 -84t-85 -35t-85 35t-35 84z" />
    <glyph glyph-name="semicolon" unicode=";" horiz-adv-x="565" 
d="M190 996.5q0 50.5 35 85t84 34.5t84 -34.5t35 -85t-35 -85t-84 -34.5t-84 34.5t-35 85zM201 -53v190h190q102 -430 -184 -430v90q51 0 74.5 24.5t23.5 78.5v47h-104z" />
    <glyph glyph-name="less" unicode="&#x3c;" horiz-adv-x="1302" 
d="M227 750l496 469h235l-495 -469l495 -471h-235z" />
    <glyph glyph-name="equal" unicode="=" horiz-adv-x="1579" 
d="M258 446v162h1065v-162h-1065zM258 889v164h1065v-164h-1065z" />
    <glyph glyph-name="greater" unicode="&#x3e;" horiz-adv-x="1234" 
d="M270 279l496 471l-496 469h234l495 -469l-495 -471h-234z" />
    <glyph glyph-name="question" unicode="?" horiz-adv-x="1282" 
d="M203 1106q-2 188 122 301t325.5 113t323.5 -113t122 -323t-122 -307t-368 -99v-270h-176v403h82q207 -2 307.5 56.5t100.5 230.5q0 125 -72 194.5t-199 69.5t-199.5 -66.5t-72.5 -189.5h-174zM403 103.5q0 50.5 35 85t85 34.5t85 -34.5t35 -85t-35 -85t-85 -34.5
t-85 34.5t-35 85z" />
    <glyph glyph-name="at" unicode="@" horiz-adv-x="2369" 
d="M113 422q0 330 154.5 601t432 428t623.5 157q420 0 677 -240t257 -631q0 -317 -168 -536t-377 -219q-121 0 -177 71.5t-52 177.5q-156 -250 -424 -249q-215 0 -345 166.5t-93.5 421.5t219 413t412 158t357.5 -161t91 -396l-51 -330q-14 -115 80 -115q119 0 227 173
t108 425q0 326 -202.5 520.5t-563.5 194.5q-432 0 -712.5 -297t-280.5 -733q0 -369 228.5 -570.5t613.5 -211.5l-39 -156q-442 10 -718.5 257t-276.5 681zM811 561q-27 -178 57 -300t228.5 -122t265.5 122t147.5 300t-57.5 299t-228.5 121t-265 -121t-147.5 -299z" />
    <glyph glyph-name="A" unicode="A" horiz-adv-x="1415" 
d="M90 0l516 1419h205l514 -1419h-192l-111 311h-631l-110 -311h-191zM444 459h525l-262 733z" />
    <glyph glyph-name="B" unicode="B" horiz-adv-x="1253" 
d="M154 0v1419h508q217 0 335.5 -105.5t118.5 -271.5q0 -238 -272 -313q137 -23 221 -123t84 -231q0 -162 -126 -268.5t-337 -106.5h-532zM340 147h336q135 0 212 68t77 185.5t-83 185t-220 67.5h-322v-506zM340 803h313q129 0 202 62.5t73 170t-73 171t-202 63.5h-313v-467
z" />
    <glyph glyph-name="C" unicode="C" horiz-adv-x="1591" 
d="M80 711.5q0 314.5 209 518.5t514 204q221 0 394 -104.5t255 -301.5h-225q-127 240 -424 240q-231 0 -382 -152.5t-151 -404.5t150.5 -405.5t382.5 -153.5q141 0 251.5 62t172.5 179h225q-82 -197 -255 -301t-394 -104q-305 0 -514 204.5t-209 519z" />
    <glyph glyph-name="D" unicode="D" horiz-adv-x="1425" 
d="M154 0v1419h448q344 0 542.5 -192.5t198.5 -524t-198.5 -517t-542.5 -185.5h-448zM340 143h262q268 0 409.5 147.5t141.5 412t-141.5 412t-409.5 147.5h-262v-1119z" />
    <glyph glyph-name="E" unicode="E" horiz-adv-x="1034" 
d="M154 0v1419h751v-147h-565v-484h504v-145h-504v-496h565v-147h-751z" />
    <glyph glyph-name="F" unicode="F" horiz-adv-x="1003" 
d="M154 0v1419h798v-149h-612v-482h483v-147h-483v-641h-186z" />
    <glyph glyph-name="G" unicode="G" horiz-adv-x="1591" 
d="M80 711.5q0 314.5 209 518.5t514 204q221 0 394 -104.5t255 -301.5h-225q-127 240 -424 240q-231 0 -382 -152.5t-151 -404.5t150.5 -405.5t375 -153.5t360.5 127t159 344h-586v147h782v-147q-29 -274 -227.5 -454.5t-492 -180.5t-502.5 204.5t-209 519z" />
    <glyph glyph-name="H" unicode="H" horiz-adv-x="1396" 
d="M154 0v1419h186v-631h715v631h188v-1419h-188v641h-715v-641h-186z" />
    <glyph glyph-name="I" unicode="I" horiz-adv-x="493" 
d="M154 0v1419h186v-1419h-186z" />
    <glyph glyph-name="J" unicode="J" horiz-adv-x="1130" 
d="M102 371h191q2 -98 52 -159.5t155.5 -61.5t157 62.5t51.5 158.5v1048h186v-1048q0 -176 -108.5 -280.5t-286.5 -104.5t-288 104.5t-110 280.5z" />
    <glyph glyph-name="K" unicode="K" horiz-adv-x="1224" 
d="M154 0v1419h186v-657l584 657h243l-663 -719l663 -700h-247l-580 635v-635h-186z" />
    <glyph glyph-name="L" unicode="L" horiz-adv-x="878" 
d="M154 0v1419h186v-1276h498v-143h-684z" />
    <glyph glyph-name="M" unicode="M" horiz-adv-x="1755" 
d="M154 0v1419h190l535 -1163l532 1163h191v-1419h-189v1034l-475 -1034h-121l-477 1034v-1034h-186z" />
    <glyph glyph-name="N" unicode="N" horiz-adv-x="1429" 
d="M154 0v1419h186l750 -1126v1126h186v-1419h-186l-750 1126v-1126h-186z" />
    <glyph glyph-name="O" unicode="O" horiz-adv-x="1601" 
d="M80 711.5q0 314.5 209 518.5t514 204t513 -204t208 -519.5t-208 -520t-513 -204.5t-514 205.5t-209 520zM268 711q0 -252 151.5 -405.5t383 -153.5t381 153.5t149.5 405.5t-149.5 404.5t-382 152.5t-383 -152.5t-150.5 -404.5z" />
    <glyph glyph-name="P" unicode="P" horiz-adv-x="1183" 
d="M154 0v1419h460q240 0 366 -116.5t126 -299t-122 -300t-370 -117.5h-274v-586h-186zM340 733h274q154 0 229 70.5t75 197.5q0 268 -304 269h-274v-537z" />
    <glyph glyph-name="Q" unicode="Q" horiz-adv-x="1607" 
d="M80 711.5q0 314.5 209 518.5t514 204t513 -204t208 -519q0 -203 -90.5 -365t-247.5 -256l362 -358h-245l-287 284q-98 -30 -213 -30q-305 0 -514 205.5t-209 520zM268 711q0 -252 151.5 -405.5t383 -153.5t381 153.5t149.5 405.5t-149.5 404.5t-382 152.5t-383 -152.5
t-150.5 -404.5z" />
    <glyph glyph-name="R" unicode="R" horiz-adv-x="1263" 
d="M154 0v1419h460q240 0 366 -116.5t126 -285.5t-92 -281.5t-277 -141.5l391 -594h-233l-373 586h-182v-586h-186zM340 733h274q154 0 229 70.5t75 197.5q0 268 -304 269h-274v-537z" />
    <glyph glyph-name="S" unicode="S" horiz-adv-x="1202" 
d="M123 354h199q8 -96 76.5 -155.5t203.5 -59.5t215 70t80 163t-43 143t-110.5 74.5t-150.5 42t-166 42t-150.5 62.5t-110.5 113t-43 185q0 180 128 290t334 110t327.5 -95.5t140.5 -263.5h-207q-8 84 -79 143.5t-190.5 59.5t-195.5 -60.5t-76 -177.5q0 -78 43 -129
t110.5 -75.5t150.5 -43t166 -42t150.5 -60.5t110.5 -110.5t43 -182.5q0 -166 -127 -288.5t-343 -122.5t-351 99t-135 269z" />
    <glyph glyph-name="T" unicode="T" horiz-adv-x="1118" 
d="M90 1270v149h936v-149h-375v-1270h-186v1270h-375z" />
    <glyph glyph-name="U" unicode="U" horiz-adv-x="1378" 
d="M152 498v921h188v-921q0 -176 93 -263.5t257 -87.5t258 87.5t94 263.5v921h187v-921q0 -250 -152.5 -381t-387 -131t-386 131t-151.5 381z" />
    <glyph glyph-name="V" unicode="V" horiz-adv-x="1392" 
d="M49 1419h199l446 -1220l451 1220h198l-546 -1419h-201z" />
    <glyph glyph-name="W" unicode="W" horiz-adv-x="2007" 
d="M49 1419h197l315 -1206l344 1206h205l317 -1202l334 1202h197l-430 -1419h-209l-320 1147l-342 -1147l-206 -2z" />
    <glyph glyph-name="X" unicode="X" horiz-adv-x="1288" 
d="M102 0l439 711l-439 708h207l346 -561l326 561h207l-438 -710l436 -709h-205l-346 559l-326 -559h-207z" />
    <glyph glyph-name="Y" unicode="Y" horiz-adv-x="1171" 
d="M31 1419h205l350 -710l348 710h207l-461 -882v-537h-186v537z" />
    <glyph glyph-name="Z" unicode="Z" horiz-adv-x="1110" 
d="M102 0v147l693 1123h-693v149h906v-149l-691 -1123h691v-147h-906z" />
    <glyph glyph-name="bracketleft" unicode="[" horiz-adv-x="970" 
d="M328 -350v2279h348v-155h-176v-1967h176v-157h-348z" />
    <glyph glyph-name="backslash" unicode="\" horiz-adv-x="1398" 
d="M319 1929h187l639 -2277h-184z" />
    <glyph glyph-name="bracketright" unicode="]" horiz-adv-x="970" 
d="M295 -193h176v1967h-176v155h350v-2279h-350v157z" />
    <glyph glyph-name="asciicircum" unicode="^" horiz-adv-x="1294" 
d="M78 348l483 1071h172l484 -1071h-197l-373 838l-373 -838h-196z" />
    <glyph glyph-name="underscore" unicode="_" horiz-adv-x="1650" 
d="M293 -82h1089v-168h-1089v168z" />
    <glyph glyph-name="grave" unicode="`" horiz-adv-x="489" 
d="M20 1432v172l437 -258v-144z" />
    <glyph glyph-name="a" unicode="a" 
d="M80 568q0 257 152.5 416t383.5 159q143 0 251 -67.5t163 -176.5v225h189v-1124h-189v229q-55 -111 -162.5 -179t-251.5 -68q-229 0 -382.5 164.5t-153.5 421.5zM270 569.5q0 -190.5 113 -309.5t268.5 -119t267 115t111.5 305.5t-111.5 305t-268 114.5t-268.5 -110.5
t-112 -301z" />
    <glyph glyph-name="b" unicode="b" 
d="M154 0v1516h186v-617q57 109 165 176.5t251 67.5q231 0 383.5 -159t152.5 -416t-153.5 -421.5t-382.5 -164.5q-143 0 -251 68.5t-165 178.5v-229h-186zM340 562.5q0 -189.5 111.5 -305.5t268.5 -116t268.5 118t111.5 309.5t-111.5 302t-268.5 110.5t-268.5 -114.5
t-111.5 -304z" />
    <glyph glyph-name="c" unicode="c" horiz-adv-x="1228" 
d="M80 562q0 261 151.5 421t393.5 160q203 0 330.5 -94.5t179.5 -268.5h-201q-33 98 -113 153.5t-196 55.5q-160 0 -257.5 -111.5t-97.5 -315.5t97.5 -315.5t257.5 -111.5q240 0 309 209h201q-51 -166 -181.5 -264t-328.5 -98q-242 0 -393.5 159.5t-151.5 420.5z" />
    <glyph glyph-name="d" unicode="d" 
d="M80 568q0 257 152.5 416t383.5 159q143 0 251 -67.5t163 -176.5v617h189v-1516h-189v229q-55 -111 -162.5 -179t-251.5 -68q-229 0 -382.5 164.5t-153.5 421.5zM270 569.5q0 -190.5 113 -309.5t268.5 -119t267 115t111.5 305.5t-111.5 305t-268 114.5t-268.5 -110.5
t-112 -301z" />
    <glyph glyph-name="e" unicode="e" horiz-adv-x="1251" 
d="M80 563q0 262 153.5 421t398.5 159t393.5 -150.5t148.5 -384.5q0 -59 -9 -110h-895q8 -168 105.5 -265.5t249.5 -97.5q115 0 193.5 51.5t115.5 135.5h201q-53 -147 -183 -243.5t-327 -96.5q-242 0 -393.5 159.5t-151.5 421.5zM272 633h707q-2 162 -102.5 259t-249 97
t-246.5 -95t-109 -261z" />
    <glyph glyph-name="f" unicode="f" horiz-adv-x="675" 
d="M47 973v151h146v95q0 184 98 268t309 84v-152q-123 0 -171 -46t-48 -154v-95h235v-151h-235v-973h-188v973h-146z" />
    <glyph glyph-name="g" unicode="g" 
d="M80 568q0 257 152.5 416t383.5 159q143 0 251 -67.5t163 -176.5v225h189v-1153q0 -231 -149.5 -377.5t-379 -146.5t-380 106.5t-171.5 278.5h183q27 -96 125 -159.5t243.5 -63.5t242.5 95t97 267v258q-55 -111 -162.5 -179t-251.5 -68q-229 0 -382.5 164.5t-153.5 421.5z
M270 569.5q0 -190.5 113 -309.5t268.5 -119t267 115t111.5 305.5t-111.5 305t-268 114.5t-268.5 -110.5t-112 -301z" />
    <glyph glyph-name="h" unicode="h" horiz-adv-x="1286" 
d="M154 0v1516h186v-574q115 201 367 201q186 0 311 -124t125 -353v-666h-185v635q0 170 -81.5 258t-226 88t-227.5 -88t-83 -258v-635h-186z" />
    <glyph glyph-name="i" unicode="i" horiz-adv-x="493" 
d="M123 1431.5q0 53.5 37 90.5t89 37t89 -37t37 -90.5t-37 -90t-90 -36.5t-89 36.5t-36 90zM154 0v1124h186v-1124h-186z" />
    <glyph glyph-name="j" unicode="j" horiz-adv-x="493" 
d="M-66 -379h78q78 0 110 32t32 105v1366h186v-1366q0 -290 -289 -290h-2h-115v153zM123 1431.5q0 53.5 37 90.5t89 37t89 -37t37 -90.5t-37 -90t-90 -36.5t-89 36.5t-36 90z" />
    <glyph glyph-name="k" unicode="k" horiz-adv-x="1050" 
d="M154 0v1516h186v-889l430 497h262l-530 -559l530 -565h-252l-440 494v-494h-186z" />
    <glyph glyph-name="l" unicode="l" horiz-adv-x="493" 
d="M154 0v1516h186v-1516h-186z" />
    <glyph glyph-name="m" unicode="m" horiz-adv-x="2088" 
d="M154 0v1124h186v-182q115 201 367 201q129 0 233 -62.5t158 -181.5q61 115 166.5 179.5t240.5 64.5q190 0 315.5 -124t125.5 -353v-666h-185v635q0 170 -83 258t-226 88t-226 -88t-83 -258v-635h-185v635q0 170 -81.5 258t-226 88t-227.5 -88t-83 -258v-635h-186z" />
    <glyph glyph-name="n" unicode="n" horiz-adv-x="1286" 
d="M154 0v1124h186v-182q115 201 367 201q186 0 311 -124t125 -353v-666h-185v635q0 170 -81.5 258t-226 88t-227.5 -88t-83 -258v-635h-186z" />
    <glyph glyph-name="o" unicode="o" horiz-adv-x="1294" 
d="M80 561q0 260 161.5 421t405.5 161t405.5 -161t161.5 -420t-168.5 -419.5t-412.5 -160.5t-398.5 159.5t-154.5 419.5zM270 562q0 -202 102.5 -314.5t260.5 -112.5t273.5 113.5t115.5 314.5t-110.5 313.5t-269.5 112.5t-265.5 -112.5t-106.5 -314.5z" />
    <glyph glyph-name="p" unicode="p" 
d="M154 -532v1656h186v-225q57 109 165 176.5t251 67.5q231 0 383.5 -159t152.5 -416t-153.5 -421.5t-382.5 -164.5q-143 0 -251 68.5t-165 178.5v-761h-186zM340 562.5q0 -189.5 111.5 -305.5t268.5 -116t268.5 118t111.5 309.5t-111.5 302t-268.5 110.5t-268.5 -114.5
t-111.5 -304z" />
    <glyph glyph-name="q" unicode="q" 
d="M80 568q0 257 152.5 416t383.5 159q143 0 251 -67.5t163 -176.5v225h189v-1656h-189v761q-55 -111 -162.5 -179t-251.5 -68q-229 0 -382.5 164.5t-153.5 421.5zM270 569.5q0 -190.5 113 -309.5t268.5 -119t267 115t111.5 305.5t-111.5 305t-268 114.5t-268.5 -110.5
t-112 -301z" />
    <glyph glyph-name="r" unicode="r" horiz-adv-x="753" 
d="M154 0v1124h186v-190q100 209 342 209v-195h-49q-143 0 -218 -74.5t-75 -259.5v-614h-186z" />
    <glyph glyph-name="s" unicode="s" horiz-adv-x="1077" 
d="M113 336h192q4 -94 66.5 -150.5t172 -56.5t172 47t62.5 120t-49 116t-123 59t-161 38.5t-160.5 48.5t-122.5 89.5t-49 159.5q0 141 117.5 238.5t305 97.5t294 -95.5t116.5 -261.5h-192q-4 94 -63.5 151.5t-165 57.5t-166 -50t-60.5 -129t68.5 -122t166 -62.5t194.5 -45
t166 -96t69 -200.5t-118 -219t-306.5 -89t-302 94t-123.5 260z" />
    <glyph glyph-name="t" unicode="t" horiz-adv-x="727" 
d="M49 973v151h146v279h188v-279h291v-151h-291v-684q0 -76 30.5 -106.5t108.5 -30.5h154v-152h-189q-293 0 -292 289v684h-146z" />
    <glyph glyph-name="u" unicode="u" horiz-adv-x="1286" 
d="M143 457v667h185v-637q0 -168 83 -257t226 -89t226 89t83 257v637h187v-1124h-187v180q-112 -198 -363 -198h-3q-186 0 -311.5 123.5t-125.5 351.5z" />
    <glyph glyph-name="v" unicode="v" horiz-adv-x="1138" 
d="M25 1124h198l344 -950l346 950h201l-440 -1124h-211z" />
    <glyph glyph-name="w" unicode="w" horiz-adv-x="1654" 
d="M25 1124h192l260 -938l264 938h193l250 -940l258 940h188l-354 -1124h-193l-254 893l-254 -893h-194z" />
    <glyph glyph-name="x" unicode="x" horiz-adv-x="978" 
d="M25 0l362 557l-362 567h211l268 -419l250 419h200l-362 -561l360 -563h-211l-266 418l-248 -418h-202z" />
    <glyph glyph-name="y" unicode="y" horiz-adv-x="1140" 
d="M25 1124h204l344 -909l351 909h192l-678 -1650h-192l223 544z" />
    <glyph glyph-name="z" unicode="z" horiz-adv-x="927" 
d="M86 0v152l543 821h-543v151h754v-151l-543 -821h543v-152h-754z" />
    <glyph glyph-name="braceleft" unicode="{" horiz-adv-x="1126" 
d="M297 719v86q207 41 207 264q0 70 -17.5 198t-17.5 219t20.5 177t46 135t65.5 88t64.5 53.5t57.5 28.5h186v-33q-262 -98 -262 -501q0 -90 16.5 -211t16.5 -205t-53.5 -158t-161.5 -96v-4q215 -44 215 -277q0 -61 -16.5 -182t-16.5 -211q0 -403 262 -502v-32h-186
q-33 14 -57.5 28.5t-64.5 53t-64 88.5q-68 127 -68 329q0 74 17.5 202t17.5 198q0 221 -207 264z" />
    <glyph glyph-name="bar" unicode="|" horiz-adv-x="616" 
d="M215 -217v1845h186v-1845h-186z" />
    <glyph glyph-name="braceright" unicode="}" horiz-adv-x="1120" 
d="M217 -412q125 47 194.5 173t69.5 329q0 90 -16 211t-16 182q0 233 213 277v4q-109 22 -161 96t-52 158t16 204.5t16 211.5q0 203 -69.5 328.5t-194.5 172.5v33h189q33 -14 57 -28.5t64 -53.5t67 -88q66 -127 65 -330q0 -74 -17 -201.5t-17 -197.5q0 -225 204 -264v-86
q-205 -41 -204 -264q0 -70 17 -198t17 -219t-20.5 -177t-46 -135.5t-65.5 -88t-64.5 -53t-56.5 -28.5h-189v32z" />
    <glyph glyph-name="asciitilde" unicode="~" horiz-adv-x="1064" 
d="M78 514q26 148 104 220.5t176.5 72.5t195.5 -65.5t151.5 -65.5t95.5 32.5t49 92.5h139q-53 -293 -299 -293q-82 0 -179 65.5t-150.5 65.5t-95.5 -34t-50 -91h-137z" />
    <glyph glyph-name="uni00A0" unicode="&#xa0;" horiz-adv-x="614" 
 />
    <glyph glyph-name="exclamdown" unicode="&#xa1;" horiz-adv-x="868" 
d="M315 1023q0 50 35 85t85 35t85 -35t35 -85t-35 -85t-85 -35t-85 35t-35 85zM332 -389l22 1108h152l20 -1108h-194z" />
    <glyph glyph-name="cent" unicode="&#xa2;" horiz-adv-x="1464" 
d="M145 533.5q0 211.5 121 363.5t346 172v180h123v-180q174 -16 283.5 -112.5t130.5 -231.5h-174q-61 188 -299 188q-162 0 -259.5 -101t-97.5 -278.5t97.5 -278.5t259.5 -101q238 0 299 188h174q-20 -135 -130 -231.5t-284 -110.5v-182h-123v182q-225 20 -346 171
t-121 362.5z" />
    <glyph glyph-name="sterling" unicode="&#xa3;" horiz-adv-x="1308" 
d="M92 631v131h178q-47 129 -47 256q0 195 125 315.5t330 120.5t313.5 -120t110.5 -304h-168q0 121 -63.5 193.5t-191.5 72.5t-205 -69.5t-77 -218.5q0 -96 52 -246h405v-131h-365q18 -74 19 -123q0 -199 -139 -354h747v-156h-907l-39 108q82 96 122 184.5t40 184.5t-17 156
h-223z" />
    <glyph glyph-name="currency" unicode="&#xa4;" horiz-adv-x="1099" 
d="M123 440l121 121q-57 90 -57.5 212t61.5 212l-125 123l92 92l125 -125q92 57 211 57.5t207 -59.5l127 127l92 -92l-125 -125q59 -92 59 -211t-61 -209l127 -123l-92 -92l-127 127q-92 -63 -214 -63t-208 57l-121 -121zM336 772q0 -117 58.5 -181.5t148.5 -64.5
t154.5 64.5t64.5 181.5t-62.5 182.5t-152.5 65.5t-150.5 -65.5t-60.5 -182.5z" />
    <glyph glyph-name="yen" unicode="&#xa5;" horiz-adv-x="1171" 
d="M31 1419h205l350 -710l348 710h207l-332 -635h281v-141l-357 -4l-53 -102v-109h410v-141h-410v-287h-186v287h-410v141h410v109l-54 102l-356 4v141h281z" />
    <glyph glyph-name="brokenbar" unicode="&#xa6;" horiz-adv-x="616" 
d="M215 -217v774h186v-774h-186zM215 854v774h186v-774h-186z" />
    <glyph glyph-name="section" unicode="&#xa7;" horiz-adv-x="1175" 
d="M92 487q0 131 75 219.5t208 127.5q-104 49 -159.5 109.5t-55.5 158.5q0 137 115.5 229t304 92t305 -85t116.5 -232h-180q-6 84 -63.5 135t-167.5 51q-248 0 -248 -178q0 -72 65.5 -117t270.5 -112.5t305 -154.5t100 -216t-72.5 -217t-207.5 -131q104 -49 159.5 -109.5
t55.5 -158.5q0 -137 -116 -229.5t-305 -92.5t-305 85t-116 233h178q6 -84 63.5 -135.5t170.5 -51.5q248 0 248 178q0 72 -65.5 117t-271.5 112.5t-306.5 154.5t-100.5 218zM281 500.5q0 -97.5 86 -166t225 -68.5t222 67.5t83 167t-87 166t-226.5 66.5t-221 -67.5t-81.5 -165
z" />
    <glyph glyph-name="dieresis" unicode="&#xa8;" horiz-adv-x="591" 
d="M20 1380q0 45 33 78t78 33t78 -33t33 -78t-33 -77.5t-78 -32.5t-78 32.5t-33 77.5zM350 1380q0 45 32 78t79 33t78.5 -33t31.5 -78t-31.5 -77.5t-78.5 -32.5t-79 32.5t-32 77.5z" />
    <glyph glyph-name="copyright" unicode="&#xa9;" horiz-adv-x="1617" 
d="M98 708.5q0 319.5 198 522.5t513 203t512 -203t197 -523.5t-197 -523t-512 -202.5t-513 203.5t-198 523zM190 708.5q0 -292.5 167 -469t451 -176.5t450.5 176.5t166.5 469t-166.5 468t-450.5 175.5t-451 -175.5t-167 -468zM362 711q0 211 127 342t318 131
q156 0 265.5 -79t150.5 -218h-179q-47 158 -237 157q-121 0 -195.5 -83.5t-74.5 -249.5t74.5 -251t195.5 -85q180 0 237 157h179q-43 -131 -153.5 -213.5t-262.5 -82.5q-190 0 -317.5 132t-127.5 343z" />
    <glyph glyph-name="ordfeminine" unicode="&#xaa;" horiz-adv-x="921" 
d="M68 1085.5q0 159.5 98 263t242 103.5q96 0 165.5 -41t104.5 -106v135h149v-717h-149v135q-35 -66 -104.5 -106.5t-165.5 -40.5q-143 0 -241.5 107.5t-98.5 267zM225 1084.5q0 -113.5 66.5 -184.5t160 -71t160 69t66.5 183.5t-66.5 182t-160 67.5t-160 -66.5t-66.5 -180z
" />
    <glyph glyph-name="guillemotleft" unicode="&#xab;" horiz-adv-x="944" 
d="M92 604l197 359h182l-203 -359l203 -358h-182zM463 604l194 359h185l-203 -359l203 -358h-185z" />
    <glyph glyph-name="logicalnot" unicode="&#xac;" horiz-adv-x="1511" 
d="M92 737v150h1313v-436h-184v286h-1129z" />
    <glyph glyph-name="uni00AD" unicode="&#xad;" horiz-adv-x="1202" 
d="M193 670v159h817v-159h-817z" />
    <glyph glyph-name="registered" unicode="&#xae;" horiz-adv-x="1617" 
d="M98 707.5q0 320.5 199 523.5t518.5 203t518 -203t198.5 -523.5t-199.5 -523t-517 -202.5t-517.5 202.5t-200 523zM190 709.5q0 -291.5 169 -469t456 -177.5t456 176.5t169 469t-169 468t-456 175.5t-456 -175.5t-169 -467zM524 252v948h307q162 0 247 -78t85 -190.5
t-61.5 -187t-186.5 -95.5l261 -397h-154l-248 391h-127v-391h-123zM647 741h184q205 0 205 181.5t-205 181.5h-184v-363z" />
    <glyph glyph-name="macron" unicode="&#xaf;" horiz-adv-x="761" 
d="M20 1305v149h721v-149h-721z" />
    <glyph glyph-name="degree" unicode="&#xb0;" horiz-adv-x="843" 
d="M59 1071q0 164 102.5 263.5t260.5 99.5t260 -99.5t102 -262.5t-106.5 -262t-264 -99t-256 98t-98.5 262zM209 1071q0 -119 58.5 -182.5t147.5 -63.5t153.5 64.5t64.5 181.5t-62.5 183.5t-151.5 66.5t-149.5 -65.5t-60.5 -184.5z" />
    <glyph glyph-name="plusminus" unicode="&#xb1;" horiz-adv-x="1523" 
d="M240 266v164h434v338h-434v164h434v344h176v-344h434v-164h-434v-338h434v-164h-1044z" />
    <glyph glyph-name="uni00B2" unicode="&#xb2;" horiz-adv-x="659" 
d="M49 1251q4 90 69.5 146.5t182.5 56.5t188.5 -69.5t71.5 -154.5t-43 -146.5t-143 -135.5l-146 -102h338v-125h-516v106l209 166q143 117 143 224q0 53 -30.5 85.5t-75.5 32.5q-84 0 -98 -84h-150z" />
    <glyph glyph-name="uni00B3" unicode="&#xb3;" horiz-adv-x="673" 
d="M39 924h145q18 -98 129 -99q57 0 92 28t35 76t-35.5 74.5t-93.5 26.5h-86v103h84q57 0 92 25.5t35 72.5t-32.5 75.5t-90.5 28.5q-94 0 -120 -73h-146q8 86 86 139t188.5 53t192.5 -61.5t82 -149.5q0 -123 -129 -164v-4q57 -18 94 -60t37 -115t-79 -131t-204 -58
t-196.5 56t-79.5 157z" />
    <glyph glyph-name="acute" unicode="&#xb4;" horiz-adv-x="477" 
d="M20 1202v144l437 258v-172z" />
    <glyph glyph-name="mu" unicode="&#xb5;" horiz-adv-x="1296" 
d="M154 -532v1656h184v-637q0 -168 83 -257t226.5 -89t226 89t82.5 257v637h187v-1124h-187v180q-113 -199 -366 -198q-152 0 -252 86v-600h-184z" />
    <glyph glyph-name="paragraph" unicode="&#xb6;" horiz-adv-x="1224" 
d="M76 1000.5q0 185.5 123.5 302t361.5 116.5h510v-1419h-174v1270h-139v-1270h-174v586h-23q-242 0 -363.5 114.5t-121.5 300z" />
    <glyph glyph-name="periodcentered" unicode="&#xb7;" horiz-adv-x="471" 
d="M117 703.5q0 50.5 34.5 85t84 34.5t84 -34.5t34.5 -85t-34.5 -85t-84 -34.5t-84 34.5t-34.5 85z" />
    <glyph glyph-name="cedilla" unicode="&#xb8;" horiz-adv-x="544" 
d="M20 -403h220q115 0 114.5 85t-114.5 85h-113v247h131v-123q119 0 192.5 -56t73.5 -152.5t-72.5 -155.5t-187.5 -59h-244v129z" />
    <glyph glyph-name="uni00B9" unicode="&#xb9;" horiz-adv-x="393" 
d="M41 1329v113h254v-721h-150v608h-104z" />
    <glyph glyph-name="ordmasculine" unicode="&#xba;" horiz-adv-x="892" 
d="M68 1080q0 165 109.5 268.5t271 103.5t269 -102.5t107.5 -267t-112.5 -268t-273 -103.5t-266 102t-105.5 267zM225 1081.5q0 -120.5 60.5 -187.5t153.5 -67t162 67t69 187.5t-65.5 188t-160 67.5t-157 -67.5t-62.5 -188z" />
    <glyph glyph-name="guillemotright" unicode="&#xbb;" horiz-adv-x="944" 
d="M102 246l203 358l-203 359h183l196 -359l-196 -358h-183zM473 246l201 358l-201 359h182l197 -359l-197 -358h-182z" />
    <glyph glyph-name="onequarter" unicode="&#xbc;" horiz-adv-x="1308" 
d="M66 1329v113h253v-721h-149v608h-104zM109 0l780 1419h172l-780 -1419h-172zM604 141v86l322 498h198v-483h99v-101h-99v-141h-149v141h-371zM758 242h221v350z" />
    <glyph glyph-name="onehalf" unicode="&#xbd;" horiz-adv-x="1335" 
d="M66 1329v113h253v-721h-149v608h-104zM109 0l747 1419h172l-747 -1419h-172zM741 528q4 90 70 146.5t182.5 56.5t188 -69.5t71.5 -154.5t-43 -146.5t-143 -135.5l-145 -102h338v-125h-517v106l209 166q143 117 144 224q0 53 -31 85.5t-76 32.5q-84 0 -98 -84h-150z" />
    <glyph glyph-name="threequarters" unicode="&#xbe;" horiz-adv-x="1394" 
d="M53 924h146q18 -98 129 -99q57 0 92 28t35 76t-36 74.5t-93 26.5h-86v103h84q57 0 92 25.5t35 72.5t-33 75.5t-90 28.5q-94 0 -121 -73h-146q8 86 86 139t188.5 53t192.5 -61.5t82 -149.5q0 -123 -129 -164v-4q57 -18 94 -60t37 -115t-78.5 -131t-203.5 -58t-197 56
t-80 157zM229 0l840 1419h170l-838 -1419h-172zM719 141v86l321 498h199v-483h98v-101h-98v-141h-149v141h-371zM870 242h222v350z" />
    <glyph glyph-name="questiondown" unicode="&#xbf;" horiz-adv-x="1282" 
d="M186 42q0 210 122 307t368 100v270h176v-404h-82q-207 2 -307.5 -56t-100.5 -230q0 -125 72 -195t199 -70t199.5 67t72.5 189h174q2 -188 -121.5 -300.5t-325.5 -112.5t-324 112.5t-122 322.5zM639 1023q0 50 35 85t85 35t85 -35t35 -85t-35 -85t-85 -35t-85 35t-35 85z
" />
    <glyph glyph-name="Agrave" unicode="&#xc0;" horiz-adv-x="1415" 
d="M90 0l516 1419h205l514 -1419h-192l-111 311h-631l-110 -311h-191zM444 459h525l-262 733zM471 1726v172l436 -258v-143z" />
    <glyph glyph-name="Aacute" unicode="&#xc1;" horiz-adv-x="1415" 
d="M90 0l516 1419h205l514 -1419h-192l-111 311h-631l-110 -311h-191zM444 459h525l-262 733zM471 1497v143l436 258v-172z" />
    <glyph glyph-name="Acircumflex" unicode="&#xc2;" horiz-adv-x="1415" 
d="M90 0l516 1419h205l514 -1419h-192l-111 311h-631l-110 -311h-191zM426 1518v157l283 170l284 -170v-157l-284 176zM444 459h525l-262 733z" />
    <glyph glyph-name="Atilde" unicode="&#xc3;" horiz-adv-x="1415" 
d="M90 0l516 1419h205l514 -1419h-192l-111 311h-631l-110 -311h-191zM401 1538q14 102 71.5 157.5t128.5 55.5t136.5 -45t102.5 -45q80 0 88 86h116q-14 -102 -71.5 -158.5t-128 -56.5t-136 46t-102.5 46t-60.5 -22.5t-27.5 -63.5h-117zM444 459h525l-262 733z" />
    <glyph glyph-name="Adieresis" unicode="&#xc4;" horiz-adv-x="1415" 
d="M90 0l516 1419h205l514 -1419h-192l-111 311h-631l-110 -311h-191zM432 1675q0 45 32 78t79 33t78.5 -33t31.5 -78t-31.5 -77.5t-78.5 -32.5t-79 32.5t-32 77.5zM444 459h525l-262 733zM762 1675q0 45 32.5 78t78 33t78 -33t32.5 -78t-32.5 -77.5t-78 -32.5t-78 32.5
t-32.5 77.5z" />
    <glyph glyph-name="Aring" unicode="&#xc5;" horiz-adv-x="1415" 
d="M90 0l516 1419h205l514 -1419h-192l-111 311h-631l-110 -311h-191zM444 459h525l-262 733zM496 1753q0 96 61 155.5t152.5 59.5t153 -58.5t61.5 -155.5t-61.5 -155.5t-153 -58.5t-152.5 58.5t-61 154.5zM602 1755q0 -47 31 -77.5t77 -30.5t76.5 30.5t30.5 77.5t-30.5 77
t-76.5 30t-77 -30t-31 -77z" />
    <glyph glyph-name="AE" unicode="&#xc6;" horiz-adv-x="1835" 
d="M27 0l809 1419h870v-147h-565v-484h504v-145h-504v-496h565v-147h-752v311h-548l-177 -311h-202zM487 459h467v825z" />
    <glyph glyph-name="Ccedilla" unicode="&#xc7;" horiz-adv-x="1591" 
d="M80 721q0 305 209 509t514 204q221 0 394 -104.5t255 -301.5h-225q-127 240 -424 240q-231 0 -382 -152.5t-151 -404.5t150.5 -405.5t382.5 -153.5q141 0 251.5 62t172.5 179h225q-78 -182 -231.5 -285.5t-354.5 -117.5v-99q119 0 193 -56t74 -152.5t-73 -155.5t-188 -59
h-243v129h219q115 0 115 85t-115 85h-113v223q-281 25 -468 225.5t-187 505.5z" />
    <glyph glyph-name="Egrave" unicode="&#xc8;" horiz-adv-x="1034" 
d="M154 0v1419h751v-147h-565v-484h504v-145h-504v-496h565v-147h-751zM281 1726v172l436 -258v-143z" />
    <glyph glyph-name="Eacute" unicode="&#xc9;" horiz-adv-x="1034" 
d="M154 0v1419h751v-147h-565v-484h504v-145h-504v-496h565v-147h-751zM281 1497v143l436 258v-172z" />
    <glyph glyph-name="Ecircumflex" unicode="&#xca;" horiz-adv-x="1034" 
d="M154 0v1419h751v-147h-565v-484h504v-145h-504v-496h565v-147h-751zM233 1518v157l283 170l285 -170v-157l-285 176z" />
    <glyph glyph-name="Edieresis" unicode="&#xcb;" horiz-adv-x="1034" 
d="M154 0v1419h751v-147h-565v-484h504v-145h-504v-496h565v-147h-751zM242 1675q0 45 32.5 78t77.5 33t78 -33t33 -78t-33 -77.5t-78 -32.5t-77.5 32.5t-32.5 77.5zM571 1675q0 45 32 78t79 33t79 -33t32 -78t-32 -77.5t-79 -32.5t-79 32.5t-32 77.5z" />
    <glyph glyph-name="Igrave" unicode="&#xcc;" horiz-adv-x="493" 
d="M10 1726v172l436 -258v-143zM154 0v1419h186v-1419h-186z" />
    <glyph glyph-name="Iacute" unicode="&#xcd;" horiz-adv-x="493" 
d="M10 1497v143l436 258v-172zM154 0v1419h186v-1419h-186z" />
    <glyph glyph-name="Icircumflex" unicode="&#xce;" horiz-adv-x="493" 
d="M-37 1518v157l283 170l284 -170v-157l-284 176zM154 0v1419h186v-1419h-186z" />
    <glyph glyph-name="Idieresis" unicode="&#xcf;" horiz-adv-x="493" 
d="M-29 1675q0 45 33 78t78 33t78 -33t33 -78t-33 -77.5t-78 -32.5t-78 32.5t-33 77.5zM154 0v1419h186v-1419h-186zM301 1675q0 45 32 78t79 33t78.5 -33t31.5 -78t-31.5 -77.5t-78.5 -32.5t-79 32.5t-32 77.5z" />
    <glyph glyph-name="Eth" unicode="&#xd0;" horiz-adv-x="1458" 
d="M8 618v168h178v633h449q344 0 542.5 -192.5t198.5 -524t-198.5 -517t-542.5 -185.5h-449v618h-178zM373 143h262q266 0 408.5 147.5t142.5 412t-142.5 412t-408.5 147.5h-262v-476h393v-168h-393v-475z" />
    <glyph glyph-name="Ntilde" unicode="&#xd1;" horiz-adv-x="1429" 
d="M154 0v1419h186l750 -1126v1126h186v-1419h-186l-750 1126v-1126h-186zM410 1538q14 102 71.5 157.5t128 55.5t136 -45t102.5 -45q80 0 88 86h117q-14 -102 -71.5 -158.5t-128.5 -56.5t-136.5 46t-102 46t-60.5 -22.5t-28 -63.5h-116z" />
    <glyph glyph-name="Ograve" unicode="&#xd2;" horiz-adv-x="1601" 
d="M80 711.5q0 314.5 209 518.5t514 204t513 -204t208 -519.5t-208 -520t-513 -204.5t-514 205.5t-209 520zM268 711q0 -252 151.5 -405.5t383 -153.5t381 153.5t149.5 405.5t-149.5 404.5t-382 152.5t-383 -152.5t-150.5 -404.5zM565 1726v172l436 -258v-143z" />
    <glyph glyph-name="Oacute" unicode="&#xd3;" horiz-adv-x="1601" 
d="M80 711.5q0 314.5 209 518.5t514 204t513 -204t208 -519.5t-208 -520t-513 -204.5t-514 205.5t-209 520zM268 711q0 -252 151.5 -405.5t383 -153.5t381 153.5t149.5 405.5t-149.5 404.5t-382 152.5t-383 -152.5t-150.5 -404.5zM565 1497v143l436 258v-172z" />
    <glyph glyph-name="Ocircumflex" unicode="&#xd4;" horiz-adv-x="1601" 
d="M80 711.5q0 314.5 209 518.5t514 204t513 -204t208 -519.5t-208 -520t-513 -204.5t-514 205.5t-209 520zM268 711q0 -252 151.5 -405.5t383 -153.5t381 153.5t149.5 405.5t-149.5 404.5t-382 152.5t-383 -152.5t-150.5 -404.5zM518 1518v157l283 170l284 -170v-157
l-284 176z" />
    <glyph glyph-name="Otilde" unicode="&#xd5;" horiz-adv-x="1601" 
d="M80 711.5q0 314.5 209 518.5t514 204t513 -204t208 -519.5t-208 -520t-513 -204.5t-514 205.5t-209 520zM268 711q0 -252 151.5 -405.5t383 -153.5t381 153.5t149.5 405.5t-149.5 404.5t-382 152.5t-383 -152.5t-150.5 -404.5zM496 1538q14 102 71.5 157.5t128 55.5
t136 -45t102.5 -45q80 0 88 86h117q-14 -102 -71.5 -158.5t-128.5 -56.5t-137.5 46t-102 46t-59.5 -22.5t-28 -63.5h-116z" />
    <glyph glyph-name="Odieresis" unicode="&#xd6;" horiz-adv-x="1601" 
d="M80 711.5q0 314.5 209 518.5t514 204t513 -204t208 -519.5t-208 -520t-513 -204.5t-514 205.5t-209 520zM268 711q0 -252 151.5 -405.5t383 -153.5t381 153.5t149.5 405.5t-149.5 404.5t-382 152.5t-383 -152.5t-150.5 -404.5zM526 1675q0 45 32 78t79 33t79 -33t32 -78
t-32 -77.5t-79 -32.5t-79 32.5t-32 77.5zM856 1675q0 45 33 78t78 33t77.5 -33t32.5 -78t-32.5 -77.5t-77.5 -32.5t-78 32.5t-33 77.5z" />
    <glyph glyph-name="multiply" unicode="&#xd7;" horiz-adv-x="1472" 
d="M293 432l323 322l-317 319l117 117l317 -320l322 320l123 -121l-322 -319l322 -324l-117 -117l-322 324l-325 -324z" />
    <glyph glyph-name="Oslash" unicode="&#xd8;" horiz-adv-x="1601" 
d="M57 0l205 219q-182 203 -182 505t209 506t514 204q252 0 446 -146l123 131h176l-202 -219q178 -201 178 -503t-208 -506.5t-513 -204.5q-254 0 -447 147l-123 -133h-176zM268 729.5q0 -233.5 113 -379.5l752 811q-142 107 -330 107q-233 0 -384 -152.5t-151 -386z
M473 258q137 -106 330 -106q231 0 380.5 153.5t149.5 405.5q0 209 -110 358z" />
    <glyph glyph-name="Ugrave" unicode="&#xd9;" horiz-adv-x="1378" 
d="M152 498v921h188v-921q0 -176 93 -263.5t257 -87.5t258 87.5t94 263.5v921h187v-921q0 -250 -152.5 -381t-387 -131t-386 131t-151.5 381zM453 1726v172l436 -258v-143z" />
    <glyph glyph-name="Uacute" unicode="&#xda;" horiz-adv-x="1378" 
d="M152 498v921h188v-921q0 -176 93 -263.5t257 -87.5t258 87.5t94 263.5v921h187v-921q0 -250 -152.5 -381t-387 -131t-386 131t-151.5 381zM453 1497v143l436 258v-172z" />
    <glyph glyph-name="Ucircumflex" unicode="&#xdb;" horiz-adv-x="1378" 
d="M152 498v921h188v-921q0 -176 93 -263.5t257 -87.5t258 87.5t94 263.5v921h187v-921q0 -250 -152.5 -381t-387 -131t-386 131t-151.5 381zM406 1518v157l282 170l285 -170v-157l-285 176z" />
    <glyph glyph-name="Udieresis" unicode="&#xdc;" horiz-adv-x="1378" 
d="M152 498v921h188v-921q0 -176 93 -263.5t257 -87.5t258 87.5t94 263.5v921h187v-921q0 -250 -152.5 -381t-387 -131t-386 131t-151.5 381zM414 1675q0 45 32.5 78t77.5 33t78 -33t33 -78t-33 -77.5t-78 -32.5t-77.5 32.5t-32.5 77.5zM743 1675q0 45 32 78t79 33t79 -33
t32 -78t-32 -77.5t-79 -32.5t-79 32.5t-32 77.5z" />
    <glyph glyph-name="Yacute" unicode="&#xdd;" horiz-adv-x="1171" 
d="M31 1419h205l350 -710l348 710h207l-461 -882v-537h-186v537zM350 1497v143l436 258v-172z" />
    <glyph glyph-name="Thorn" unicode="&#xde;" horiz-adv-x="1183" 
d="M154 0v1419h184v-293h276q240 0 366 -115.5t126 -298t-122 -300t-370 -117.5h-274v-295h-186zM340 442h274q154 0 229 71t75 196q0 270 -304 270h-274v-537z" />
    <glyph glyph-name="germandbls" unicode="&#xdf;" horiz-adv-x="1341" 
d="M154 0v1133q0 186 117.5 294.5t308 108.5t296 -103.5t105.5 -244.5q0 -186 -186 -285l217 -137q145 -90 207.5 -183.5t62.5 -224.5q0 -170 -121 -273t-278.5 -103t-272 94t-114.5 256h163q6 -86 62.5 -136.5t157 -50.5t157 62.5t56.5 150.5q0 135 -174 246l-324 207v98
l68 35q129 68 129 211q0 94 -62.5 157.5t-159 63.5t-163 -65.5t-66.5 -171.5v-1139h-186z" />
    <glyph glyph-name="agrave" unicode="&#xe0;" 
d="M80 568q0 257 152.5 416t383.5 159q143 0 251 -67.5t163 -176.5v225h189v-1124h-189v229q-55 -111 -162.5 -179t-251.5 -68q-229 0 -382.5 164.5t-153.5 421.5zM270 569.5q0 -190.5 113 -309.5t268.5 -119t267 115t111.5 305.5t-111.5 305t-268 114.5t-268.5 -110.5
t-112 -301zM449 1432v172l436 -258v-144z" />
    <glyph glyph-name="aacute" unicode="&#xe1;" 
d="M80 568q0 257 152.5 416t383.5 159q143 0 251 -67.5t163 -176.5v225h189v-1124h-189v229q-55 -111 -162.5 -179t-251.5 -68q-229 0 -382.5 164.5t-153.5 421.5zM270 569.5q0 -190.5 113 -309.5t268.5 -119t267 115t111.5 305.5t-111.5 305t-268 114.5t-268.5 -110.5
t-112 -301zM449 1202v144l436 258v-172z" />
    <glyph glyph-name="acircumflex" unicode="&#xe2;" 
d="M80 568q0 257 152.5 416t383.5 159q143 0 251 -67.5t163 -176.5v225h189v-1124h-189v229q-55 -111 -162.5 -179t-251.5 -68q-229 0 -382.5 164.5t-153.5 421.5zM270 569.5q0 -190.5 113 -309.5t268.5 -119t267 115t111.5 305.5t-111.5 305t-268 114.5t-268.5 -110.5
t-112 -301zM401 1223v157l283 170l285 -170v-157l-285 176z" />
    <glyph glyph-name="atilde" unicode="&#xe3;" 
d="M80 568q0 257 152.5 416t383.5 159q143 0 251 -67.5t163 -176.5v225h189v-1124h-189v229q-55 -111 -162.5 -179t-251.5 -68q-229 0 -382.5 164.5t-153.5 421.5zM270 569.5q0 -190.5 113 -309.5t268.5 -119t267 115t111.5 305.5t-111.5 305t-268 114.5t-268.5 -110.5
t-112 -301zM379 1243q14 103 71.5 158t129 55t137 -45t102.5 -45q78 0 86 86h117q-14 -102 -71.5 -158.5t-127 -56.5t-137.5 46t-102.5 46t-59 -22.5t-28.5 -63.5h-117z" />
    <glyph glyph-name="adieresis" unicode="&#xe4;" 
d="M80 568q0 257 152.5 416t383.5 159q143 0 251 -67.5t163 -176.5v225h189v-1124h-189v229q-55 -111 -162.5 -179t-251.5 -68q-229 0 -382.5 164.5t-153.5 421.5zM270 569.5q0 -190.5 113 -309.5t268.5 -119t267 115t111.5 305.5t-111.5 305t-268 114.5t-268.5 -110.5
t-112 -301zM410 1380q0 45 32.5 78t77.5 33t78 -33t33 -78t-33 -77.5t-78 -32.5t-77.5 32.5t-32.5 77.5zM739 1380q0 45 32 78t79 33t79 -33t32 -78t-32 -77.5t-79 -32.5t-79 32.5t-32 77.5z" />
    <glyph glyph-name="aring" unicode="&#xe5;" 
d="M80 568q0 257 152.5 416t383.5 159q143 0 251 -67.5t163 -176.5v225h189v-1124h-189v229q-55 -111 -162.5 -179t-251.5 -68q-229 0 -382.5 164.5t-153.5 421.5zM270 569.5q0 -190.5 113 -309.5t268.5 -119t267 115t111.5 305.5t-111.5 305t-268 114.5t-268.5 -110.5
t-112 -301zM471 1458q0 96 61.5 155.5t152.5 59.5t152.5 -58.5t61.5 -155.5t-61.5 -155.5t-152.5 -58.5t-152.5 58.5t-61.5 154.5zM578 1460q0 -47 30.5 -77.5t76.5 -30.5t77 30.5t31 77.5t-31 77t-77 30t-76.5 -30t-30.5 -77z" />
    <glyph glyph-name="ae" unicode="&#xe6;" horiz-adv-x="2220" 
d="M80 569q0 258 155.5 416t409.5 158t381 -201v182h186v-182q78 109 175.5 155t228.5 46q233 0 379.5 -152.5t146.5 -382.5q0 -59 -8 -110h-909q16 -166 123.5 -264.5t248.5 -98.5q229 0 306 187h200q-53 -150 -179 -245t-316 -95q-125 0 -229.5 56t-166.5 152v-190h-186
v193q-63 -96 -170.5 -153.5t-239.5 -57.5q-229 0 -382.5 164.5t-153.5 422.5zM270 569.5q0 -190.5 113 -309.5t268.5 -119t267 115t111.5 305.5t-111.5 305t-268 114.5t-268.5 -110.5t-112 -301zM1225 633h725q-2 164 -99.5 260t-246 96t-255 -98t-124.5 -258z" />
    <glyph glyph-name="ccedilla" unicode="&#xe7;" horiz-adv-x="1228" 
d="M80 572.5q0 250.5 151.5 410.5t393.5 160q203 0 330.5 -94.5t179.5 -268.5h-201q-33 98 -112.5 153.5t-196.5 55.5q-160 0 -257.5 -111.5t-97.5 -315.5t97.5 -315.5t257.5 -111.5q240 0 309 209h201q-49 -154 -162 -250t-287 -110v-93q119 0 192.5 -56t73.5 -152.5
t-72.5 -155.5t-187.5 -59h-243v129h219q115 0 114.5 85t-114.5 85h-113v219q-213 23 -344 179.5t-131 407z" />
    <glyph glyph-name="egrave" unicode="&#xe8;" horiz-adv-x="1251" 
d="M80 563q0 262 153.5 421t398.5 159t393.5 -150.5t148.5 -384.5q0 -59 -9 -110h-895q8 -168 105.5 -265.5t249.5 -97.5q115 0 193.5 51.5t115.5 135.5h201q-53 -147 -183 -243.5t-327 -96.5q-242 0 -393.5 159.5t-151.5 421.5zM272 633h707q-2 162 -102.5 259t-249 97
t-246.5 -95t-109 -261zM389 1432v172l436 -258v-144z" />
    <glyph glyph-name="eacute" unicode="&#xe9;" horiz-adv-x="1251" 
d="M80 563q0 262 153.5 421t398.5 159t393.5 -150.5t148.5 -384.5q0 -59 -9 -110h-895q8 -168 105.5 -265.5t249.5 -97.5q115 0 193.5 51.5t115.5 135.5h201q-53 -147 -183 -243.5t-327 -96.5q-242 0 -393.5 159.5t-151.5 421.5zM272 633h707q-2 162 -102.5 259t-249 97
t-246.5 -95t-109 -261zM389 1202v144l436 258v-172z" />
    <glyph glyph-name="ecircumflex" unicode="&#xea;" horiz-adv-x="1251" 
d="M80 563q0 262 153.5 421t398.5 159t393.5 -150.5t148.5 -384.5q0 -59 -9 -110h-895q8 -168 105.5 -265.5t249.5 -97.5q115 0 193.5 51.5t115.5 135.5h201q-53 -147 -183 -243.5t-327 -96.5q-242 0 -393.5 159.5t-151.5 421.5zM272 633h707q-2 162 -102.5 259t-249 97
t-246.5 -95t-109 -261zM342 1223v157l283 170l284 -170v-157l-284 176z" />
    <glyph glyph-name="edieresis" unicode="&#xeb;" horiz-adv-x="1251" 
d="M80 563q0 262 153.5 421t398.5 159t393.5 -150.5t148.5 -384.5q0 -59 -9 -110h-895q8 -168 105.5 -265.5t249.5 -97.5q115 0 193.5 51.5t115.5 135.5h201q-53 -147 -183 -243.5t-327 -96.5q-242 0 -393.5 159.5t-151.5 421.5zM272 633h707q-2 162 -102.5 259t-249 97
t-246.5 -95t-109 -261zM350 1380q0 45 32 78t79 33t78.5 -33t31.5 -78t-31.5 -77.5t-78.5 -32.5t-79 32.5t-32 77.5zM680 1380q0 45 32.5 78t78 33t78 -33t32.5 -78t-32.5 -77.5t-78 -32.5t-78 32.5t-32.5 77.5z" />
    <glyph glyph-name="igrave" unicode="&#xec;" horiz-adv-x="493" 
d="M10 1432v172l436 -258v-144zM154 0v1124h186v-1124h-186z" />
    <glyph glyph-name="iacute" unicode="&#xed;" horiz-adv-x="493" 
d="M10 1202v144l436 258v-172zM154 0v1124h186v-1124h-186z" />
    <glyph glyph-name="icircumflex" unicode="&#xee;" horiz-adv-x="493" 
d="M-37 1223v157l283 170l284 -170v-157l-284 176zM154 0v1124h186v-1124h-186z" />
    <glyph glyph-name="idieresis" unicode="&#xef;" horiz-adv-x="493" 
d="M-29 1380q0 45 33 78t78 33t78 -33t33 -78t-33 -77.5t-78 -32.5t-78 32.5t-33 77.5zM154 0v1124h186v-1124h-186zM301 1380q0 45 32 78t79 33t78.5 -33t31.5 -78t-31.5 -77.5t-78.5 -32.5t-79 32.5t-32 77.5z" />
    <glyph glyph-name="eth" unicode="&#xf0;" horiz-adv-x="1290" 
d="M80 562q0 261 159.5 421t401.5 160q197 0 346 -139q-61 150 -188 288l-262 -88v121l172 57q-51 49 -154 134h205q55 -45 94 -84l279 94v-121l-191 -64q268 -305 268 -692q0 -324 -159.5 -495.5t-410.5 -171.5t-405.5 159.5t-154.5 420.5zM268 562q0 -202 103.5 -314.5
t261.5 -112.5t272.5 113.5t114.5 314.5t-110.5 313.5t-268.5 112.5t-265.5 -112.5t-107.5 -314.5z" />
    <glyph glyph-name="ntilde" unicode="&#xf1;" horiz-adv-x="1286" 
d="M154 0v1124h186v-182q115 201 367 201q186 0 311 -124t125 -353v-666h-185v635q0 170 -81.5 258t-226 88t-227.5 -88t-83 -258v-635h-186zM348 1243q14 102 71.5 157.5t128 55.5t136.5 -45t102 -45q80 0 88 86h117q-14 -102 -71.5 -158.5t-128 -56.5t-136 46t-102.5 46
t-60.5 -22.5t-27.5 -63.5h-117z" />
    <glyph glyph-name="ograve" unicode="&#xf2;" horiz-adv-x="1294" 
d="M80 561q0 260 161.5 421t405.5 161t405.5 -161t161.5 -420t-168.5 -419.5t-412.5 -160.5t-398.5 159.5t-154.5 419.5zM270 562q0 -202 102.5 -314.5t260.5 -112.5t273.5 113.5t115.5 314.5t-110.5 313.5t-269.5 112.5t-265.5 -112.5t-106.5 -314.5zM410 1432v172
l436 -258v-144z" />
    <glyph glyph-name="oacute" unicode="&#xf3;" horiz-adv-x="1294" 
d="M80 561q0 260 161.5 421t405.5 161t405.5 -161t161.5 -420t-168.5 -419.5t-412.5 -160.5t-398.5 159.5t-154.5 419.5zM270 562q0 -202 102.5 -314.5t260.5 -112.5t273.5 113.5t115.5 314.5t-110.5 313.5t-269.5 112.5t-265.5 -112.5t-106.5 -314.5zM410 1202v144l436 258
v-172z" />
    <glyph glyph-name="ocircumflex" unicode="&#xf4;" horiz-adv-x="1294" 
d="M80 561q0 260 161.5 421t405.5 161t405.5 -161t161.5 -420t-168.5 -419.5t-412.5 -160.5t-398.5 159.5t-154.5 419.5zM270 562q0 -202 102.5 -314.5t260.5 -112.5t273.5 113.5t115.5 314.5t-110.5 313.5t-269.5 112.5t-265.5 -112.5t-106.5 -314.5zM365 1223v157l282 170
l285 -170v-157l-285 176z" />
    <glyph glyph-name="otilde" unicode="&#xf5;" horiz-adv-x="1294" 
d="M80 561q0 260 161.5 421t405.5 161t405.5 -161t161.5 -420t-168.5 -419.5t-412.5 -160.5t-398.5 159.5t-154.5 419.5zM270 562q0 -202 102.5 -314.5t260.5 -112.5t273.5 113.5t115.5 314.5t-110.5 313.5t-269.5 112.5t-265.5 -112.5t-106.5 -314.5zM340 1243
q14 103 71.5 158t128 55t136 -45t102.5 -45q80 0 88 86h117q-14 -102 -71.5 -158.5t-128 -56.5t-136 46t-102.5 46t-60.5 -22.5t-27.5 -63.5h-117z" />
    <glyph glyph-name="odieresis" unicode="&#xf6;" horiz-adv-x="1294" 
d="M80 561q0 260 161.5 421t405.5 161t405.5 -161t161.5 -420t-168.5 -419.5t-412.5 -160.5t-398.5 159.5t-154.5 419.5zM270 562q0 -202 102.5 -314.5t260.5 -112.5t273.5 113.5t115.5 314.5t-110.5 313.5t-269.5 112.5t-265.5 -112.5t-106.5 -314.5zM371 1380
q0 45 31.5 78t78.5 33t79 -33t32 -78t-32 -77.5t-79 -32.5t-78.5 32.5t-31.5 77.5zM700 1380q0 45 33 78t78 33t78 -33t33 -78t-33 -77.5t-78 -32.5t-78 32.5t-33 77.5z" />
    <glyph glyph-name="divide" unicode="&#xf7;" horiz-adv-x="1449" 
d="M225 668v163h1043v-163h-1043zM627 313q0 49 34.5 84t85 35t85 -35t34.5 -84t-34.5 -83.5t-85 -34.5t-85 34.5t-34.5 83.5zM627 1185q0 50 34.5 85t85 35t85 -35t34.5 -85t-34.5 -85t-85 -35t-85 35t-34.5 85z" />
    <glyph glyph-name="oslash" unicode="&#xf8;" horiz-adv-x="1294" 
d="M59 0l152 168q-131 158 -131 405.5t161.5 408.5t405.5 161q199 0 350 -113l86 94h152l-156 -172q135 -158 135 -403.5t-168.5 -406t-414.5 -160.5q-195 0 -338 108l-82 -90h-152zM270 561q0 -156 64 -260l549 602q-100 86 -250 86t-256.5 -112.5t-106.5 -315.5zM406 215
q92 -80 238.5 -80t262 113.5t115.5 312.5q0 152 -66 256z" />
    <glyph glyph-name="ugrave" unicode="&#xf9;" horiz-adv-x="1286" 
d="M143 457v667h185v-637q0 -168 83 -257t226 -89t226 89t83 257v637h187v-1124h-187v180q-113 -199 -366 -198q-186 0 -311.5 123.5t-125.5 351.5zM408 1432v172l436 -258v-144z" />
    <glyph glyph-name="uacute" unicode="&#xfa;" horiz-adv-x="1286" 
d="M143 457v667h185v-637q0 -168 83 -257t226 -89t226 89t83 257v637h187v-1124h-187v180q-113 -199 -366 -198q-186 0 -311.5 123.5t-125.5 351.5zM408 1202v144l436 258v-172z" />
    <glyph glyph-name="ucircumflex" unicode="&#xfb;" horiz-adv-x="1286" 
d="M143 457v667h185v-637q0 -168 83 -257t226 -89t226 89t83 257v637h187v-1124h-187v180q-113 -199 -366 -198q-186 0 -311.5 123.5t-125.5 351.5zM360 1223v157l283 170l285 -170v-157l-285 176z" />
    <glyph glyph-name="udieresis" unicode="&#xfc;" horiz-adv-x="1286" 
d="M143 457v667h185v-637q0 -168 83 -257t226 -89t226 89t83 257v637h187v-1124h-187v180q-113 -199 -366 -198q-186 0 -311.5 123.5t-125.5 351.5zM369 1380q0 45 32.5 78t77.5 33t78 -33t33 -78t-33 -77.5t-78 -32.5t-77.5 32.5t-32.5 77.5zM698 1380q0 45 32 78t79 33
t79 -33t32 -78t-32 -77.5t-79 -32.5t-79 32.5t-32 77.5z" />
    <glyph glyph-name="yacute" unicode="&#xfd;" horiz-adv-x="1140" 
d="M25 1124h204l344 -909l351 909h192l-678 -1650h-192l223 544zM336 1202v144l436 258v-172z" />
    <glyph glyph-name="thorn" unicode="&#xfe;" 
d="M154 -532v2048h186v-617q57 109 165 176.5t251 67.5q231 0 383.5 -159t152.5 -416t-153.5 -421.5t-382.5 -164.5q-143 0 -251 68.5t-165 178.5v-761h-186zM340 562.5q0 -189.5 111.5 -305.5t268.5 -116t268.5 118t111.5 309.5t-111.5 302t-268.5 110.5t-268.5 -114.5
t-111.5 -304z" />
    <glyph glyph-name="ydieresis" unicode="&#xff;" horiz-adv-x="1140" 
d="M25 1124h204l344 -909l351 909h192l-678 -1650h-192l223 544zM297 1380q0 45 31.5 78t79 33t79 -33t31.5 -78t-31.5 -77.5t-79 -32.5t-79 32.5t-31.5 77.5zM627 1380q0 45 32.5 78t77.5 33t78 -33t33 -78t-33 -77.5t-78 -32.5t-77.5 32.5t-32.5 77.5z" />
    <glyph glyph-name="OE" unicode="&#x152;" horiz-adv-x="2213" 
d="M80 712.5q0 315.5 210 518.5t513 203q348 0 530 -283v268h750v-149h-563v-482h501v-147h-501v-494h563v-147h-750v266q-184 -281 -530 -280q-305 0 -514 205.5t-209 521zM268 711q0 -252 151.5 -405.5t383 -153.5t381 153.5t149.5 405.5t-149.5 404.5t-382 152.5
t-383 -152.5t-150.5 -404.5z" />
    <glyph glyph-name="oe" unicode="&#x153;" horiz-adv-x="2193" 
d="M80 561q0 260 161.5 421t405.5 161q147 0 270 -66.5t197 -187.5q70 121 190.5 187.5t276.5 66.5q238 0 386.5 -150.5t148.5 -384.5q0 -59 -9 -110h-893q8 -170 105.5 -266.5t230.5 -96.5q248 0 326 187h201q-54 -148 -184 -244t-304 -96q-332 0 -477 256
q-76 -121 -203 -188.5t-278 -67.5q-242 0 -396.5 159.5t-154.5 419.5zM268 562q0 -202 103.5 -314.5t261.5 -112.5t272.5 113.5t114.5 314.5t-110.5 313.5t-268.5 112.5t-265.5 -112.5t-107.5 -314.5zM1217 633h706q-2 162 -102.5 259t-250 97t-246.5 -95t-107 -261z" />
    <glyph glyph-name="Ydieresis" unicode="&#x178;" horiz-adv-x="1171" 
d="M31 1419h205l350 -710l348 710h207l-461 -882v-537h-186v537zM311 1675q0 45 33 78t78 33t77.5 -33t32.5 -78t-32.5 -77.5t-77.5 -32.5t-78 32.5t-33 77.5zM641 1675q0 45 32 78t79 33t78.5 -33t31.5 -78t-31.5 -77.5t-78.5 -32.5t-79 32.5t-32 77.5z" />
    <glyph glyph-name="circumflex" unicode="&#x2c6;" horiz-adv-x="608" 
d="M20 1223v157l283 170l285 -170v-157l-285 176z" />
    <glyph glyph-name="tilde" unicode="&#x2dc;" horiz-adv-x="684" 
d="M20 1243q15 103 72.5 158t128 55t136 -45t102.5 -45q80 0 88 86h117q-14 -102 -71.5 -158.5t-128.5 -56.5t-136.5 46t-102.5 46t-60.5 -22.5t-27.5 -63.5h-117z" />
    <glyph glyph-name="uni2000" unicode="&#x2000;" horiz-adv-x="1012" 
 />
    <glyph glyph-name="uni2001" unicode="&#x2001;" horiz-adv-x="2025" 
 />
    <glyph glyph-name="uni2002" unicode="&#x2002;" horiz-adv-x="1012" 
 />
    <glyph glyph-name="uni2003" unicode="&#x2003;" horiz-adv-x="2025" 
 />
    <glyph glyph-name="uni2004" unicode="&#x2004;" horiz-adv-x="675" 
 />
    <glyph glyph-name="uni2005" unicode="&#x2005;" horiz-adv-x="506" 
 />
    <glyph glyph-name="uni2006" unicode="&#x2006;" horiz-adv-x="337" 
 />
    <glyph glyph-name="uni2007" unicode="&#x2007;" horiz-adv-x="337" 
 />
    <glyph glyph-name="uni2008" unicode="&#x2008;" horiz-adv-x="253" 
 />
    <glyph glyph-name="uni2009" unicode="&#x2009;" horiz-adv-x="405" 
 />
    <glyph glyph-name="uni200A" unicode="&#x200a;" horiz-adv-x="112" 
 />
    <glyph glyph-name="uni2010" unicode="&#x2010;" horiz-adv-x="1202" 
d="M193 670v159h817v-159h-817z" />
    <glyph glyph-name="uni2011" unicode="&#x2011;" horiz-adv-x="1202" 
d="M193 670v159h817v-159h-817z" />
    <glyph glyph-name="figuredash" unicode="&#x2012;" horiz-adv-x="1202" 
d="M193 670v159h817v-159h-817z" />
    <glyph glyph-name="endash" unicode="&#x2013;" horiz-adv-x="1462" 
d="M193 670v159h1077v-159h-1077z" />
    <glyph glyph-name="emdash" unicode="&#x2014;" horiz-adv-x="1886" 
d="M193 670v159h1503v-159h-1503z" />
    <glyph glyph-name="quoteleft" unicode="&#x2018;" horiz-adv-x="311" 
d="M49 1372q0 231 209 232v-91q-98 0 -98 -106v-47h100v-176h-186q-25 106 -25 188z" />
    <glyph glyph-name="quoteright" unicode="&#x2019;" horiz-adv-x="311" 
d="M51 1427v177h187q25 -109 24 -189q0 -231 -209 -231v90q98 0 99 106v47h-101z" />
    <glyph glyph-name="quotesinglbase" unicode="&#x201a;" horiz-adv-x="380" 
d="M80 -53v190h190q102 -430 -184 -430v90q51 0 74.5 24.5t23.5 78.5v47h-104z" />
    <glyph glyph-name="quotedblleft" unicode="&#x201c;" horiz-adv-x="587" 
d="M49 1372q0 231 209 232v-91q-98 0 -98 -106v-47h100v-176h-186q-25 106 -25 188zM326 1372q0 231 209 232v-91q-98 0 -99 -106v-47h101v-176h-187q-25 106 -24 188z" />
    <glyph glyph-name="quotedblright" unicode="&#x201d;" horiz-adv-x="587" 
d="M51 1427v177h187q25 -109 24 -189q0 -231 -209 -231v90q98 0 99 106v47h-101zM330 1427v177h186q25 -109 25 -189q0 -231 -209 -231v90q98 0 98 106v47h-100z" />
    <glyph glyph-name="quotedblbase" unicode="&#x201e;" horiz-adv-x="380" 
d="M80 -53v190h190q102 -430 -184 -430v90q51 0 74.5 24.5t23.5 78.5v47h-104z" />
    <glyph glyph-name="bullet" unicode="&#x2022;" horiz-adv-x="913" 
d="M205 683q0 105 72.5 178t178 73t179.5 -73t74 -178t-74 -178t-179.5 -73t-178 73t-72.5 178z" />
    <glyph glyph-name="ellipsis" unicode="&#x2026;" horiz-adv-x="1230" 
d="M113 120q0 50 34.5 85t84 35t84 -35t34.5 -85t-34.5 -85t-84 -35t-84 35t-34.5 85zM498 120q0 50 34.5 85t84 35t84 -35t34.5 -85t-34.5 -85t-84 -35t-84 35t-34.5 85zM881 120q0 50 34.5 85t84 35t84 -35t34.5 -85t-34.5 -85t-84 -35t-84 35t-34.5 85z" />
    <glyph glyph-name="uni202F" unicode="&#x202f;" horiz-adv-x="405" 
 />
    <glyph glyph-name="guilsinglleft" unicode="&#x2039;" horiz-adv-x="573" 
d="M92 604l197 359h182l-203 -359l203 -358h-182z" />
    <glyph glyph-name="guilsinglright" unicode="&#x203a;" horiz-adv-x="573" 
d="M102 246l203 358l-203 359h183l196 -359l-196 -358h-183z" />
    <glyph glyph-name="uni205F" unicode="&#x205f;" horiz-adv-x="506" 
 />
    <glyph glyph-name="Euro" unicode="&#x20ac;" horiz-adv-x="1634" 
d="M57 469v139h164q-6 49 -6 101.5t6 105.5h-164v137h195q72 219 259 350.5t417.5 131.5t403.5 -104.5t255 -301.5h-225q-127 240 -424 240q-170 0 -299 -83t-188 -233h487v-137h-524q-8 -43 -8 -103.5t8 -103.5h524v-139h-487q59 -150 189 -233.5t286 -83.5q309 0 436 241
h225q-82 -197 -255 -301t-403.5 -104t-417.5 131t-259 350h-195z" />
    <glyph glyph-name="trademark" unicode="&#x2122;" horiz-adv-x="1603" 
d="M45 1329v113h473v-113h-164l2 -608h-149v608h-162zM645 721v721h180l232 -543l235 543h176v-721h-143v496l-219 -496h-105l-217 504v-504h-139z" />
    <glyph glyph-name="uni25FC" unicode="&#x25fc;" horiz-adv-x="1126" 
d="M0 0v1126h1126v-1126h-1126z" />
  </font>
</defs>
</svg>
